<svg width="24" height="24" viewBox="0 0 24 24" fill="#202020" xmlns="http://www.w3.org/2000/svg">
<g clip-path="url(#clip0_23_1153)">
<path d="M16.6701 5.77881C17.0199 5.67993 17.4987 5.54443 17.667 5.06451C18.2276 3.52056 18.8515 2.25256 19.5207 1.29528C19.735 0.988942 19.7289 0.597095 19.5055 0.297168C19.2829 -0.00184381 18.9104 -0.119215 18.5569 -0.00221007C15.5907 0.979421 13.2457 2.72131 11.5869 5.17474C10.2056 7.21784 9.59968 9.32319 9.33454 10.7298C9.14704 11.7237 9.29591 12.7692 9.75367 13.6738L10.8001 15.7418C10.7066 16.364 10.6511 16.9096 10.6355 17.3341H8.92182C8.26081 17.3341 7.72303 17.8719 7.72303 18.5327C7.72303 19.1479 8.18885 19.6564 8.78633 19.7238C8.57612 19.8452 8.25294 19.9648 7.75654 20.0428C6.84852 20.1856 6.18622 20.9462 6.16919 21.8583C6.16919 21.8615 6.16901 21.8648 6.16901 21.868V21.8753C6.16901 21.8817 6.16883 21.8881 6.16883 21.8943V23.0157H4.82813C4.56921 23.0157 4.35938 23.2255 4.35938 23.4844C4.35938 23.7433 4.56921 23.9532 4.82813 23.9532H18.282C18.5409 23.9532 18.7508 23.7433 18.7508 23.4844C18.7508 23.2255 18.5409 23.0157 18.282 23.0157H16.5478V21.8943C16.5478 21.8881 16.5478 21.8817 16.5476 21.8753C16.5476 21.8729 16.5476 21.8705 16.5476 21.8681C16.5476 21.8648 16.5475 21.8614 16.5475 21.8579C16.5302 20.9458 15.8679 20.1856 14.9601 20.0428C14.4637 19.9648 14.1405 19.8452 13.9303 19.7238C14.5278 19.6564 14.9936 19.1479 14.9936 18.5327C14.9936 17.8719 14.4558 17.3341 13.7948 17.3341H11.5715C11.5847 16.9864 11.6289 16.5421 11.7021 16.0335L14.1001 14.3399C14.6668 13.9397 15.0976 13.3561 15.3128 12.6965C15.6927 11.5327 16.2878 9.64344 16.9662 7.2508C17.1365 6.70587 16.7661 6.33783 16.5443 6.11755C16.4781 6.05164 16.3691 5.94342 16.348 5.89307C16.3484 5.8916 16.349 5.88995 16.3497 5.88794C16.4136 5.85132 16.5718 5.80664 16.6701 5.77881ZM7.10633 23.0157V22.1741H15.6103V23.0157H7.10633ZM15.3408 21.2366H7.37586C7.51319 21.0982 7.69501 21.0015 7.90229 20.9689C8.81141 20.8259 9.45631 20.521 9.81886 20.0629C9.90968 19.9479 9.97322 19.8353 10.0173 19.7313H12.6993C12.7434 19.8351 12.807 19.9479 12.8978 20.0629C13.2603 20.521 13.905 20.8259 14.8144 20.9689C15.0216 21.0015 15.2035 21.0982 15.3408 21.2366ZM14.0561 18.5327C14.0561 18.6768 13.9389 18.794 13.795 18.794H8.92164C8.77772 18.794 8.66053 18.6768 8.66053 18.5327C8.66053 18.3888 8.77772 18.2716 8.92164 18.2716H11.1046H11.1066H11.1092H13.795C13.9389 18.2716 14.0561 18.3888 14.0561 18.5327ZM15.8835 6.7826C15.9465 6.84503 16.0388 6.93659 16.067 6.98603C16.0668 6.98676 16.0664 6.98749 16.0662 6.98822C15.3911 9.3697 14.7993 11.2487 14.4216 12.4056C14.2687 12.8745 13.9624 13.2894 13.5593 13.5742L11.9281 14.7263C12.2108 13.3065 12.6521 11.6578 13.2248 10.2206C13.3208 9.98017 13.2036 9.70753 12.963 9.61158C12.7226 9.51563 12.4499 9.633 12.354 9.87342C11.8006 11.2619 11.3696 12.8192 11.0772 14.2128L10.5901 13.2504C10.2252 12.5292 10.1065 11.6957 10.2558 10.9034C10.5044 9.58393 11.0722 7.61005 12.3635 5.69989C13.858 3.48944 15.9578 1.89934 18.6074 0.970815C17.9473 1.96471 17.3357 3.23107 16.7873 4.74005C16.7313 4.78729 16.5344 4.84295 16.4151 4.87665C16.0765 4.97241 15.6145 5.10315 15.4699 5.56421C15.2525 6.15564 15.6623 6.56269 15.8835 6.7826Z" fill="#202020"/>
<path d="M13.4883 7.63535C13.2294 7.63535 13.0195 7.84518 13.0195 8.1041C13.0195 8.36301 13.2294 8.57285 13.4883 8.57285H13.4894C13.7483 8.57285 13.9576 8.36301 13.9576 8.1041C13.9576 7.84518 13.7472 7.63535 13.4883 7.63535Z" fill="#202020"/>
</g>
<defs>
<clipPath id="clip0_23_1153">
<rect width="24" height="24" fill="#202020"/>
</clipPath>
</defs>
</svg>
