<svg width="49" height="45" viewBox="0 0 49 45" fill="#202020" xmlns="http://www.w3.org/2000/svg">
<g clip-path="url(#clip0_36_604)">
<path d="M24.5 42.9675L0.538995 36.841C0.220939 36.7588 0 36.4757 0 36.1466V11.9795C0 11.5125 0.441879 11.1689 0.895897 11.2851L24.5 17.3196V42.9675Z" fill="#FF7532"/>
<path d="M11.4985 17.2204V44.775C11.4985 44.9637 11.7195 45.0702 11.8676 44.9492L13.8827 43.3208C13.9774 43.2434 14.1182 43.2579 14.1984 43.3498L15.405 44.775C15.541 44.9347 15.8032 44.8403 15.8032 44.6298V20.0852C15.8032 19.8965 15.7279 19.715 15.5944 19.5795L12.7295 16.7123C12.2779 16.2598 11.5034 16.5792 11.5034 17.218L11.4985 17.2204Z" fill="#484848"/>
<path d="M2.21191 29.7298V5.73688C2.21191 5.18521 2.81161 4.84163 3.2899 5.11746L24.5001 17.322V42.9699L2.57124 30.3516C2.34788 30.2234 2.21191 29.9863 2.21191 29.7322V29.7298Z" fill="#E9692C"/>
<path d="M6.36621 24.3244V0.716176C6.36621 0.0749778 7.14557 -0.241992 7.59716 0.212896L24.5002 17.3172V42.9651L6.57258 24.8276C6.43905 24.6946 6.36621 24.5131 6.36621 24.3244Z" fill="#D86128"/>
<path d="M24.5 42.9675L48.461 36.841C48.7791 36.7588 49 36.4757 49 36.1466V11.9795C49 11.5125 48.5581 11.1689 48.1041 11.2851L24.5 17.3196V42.9675Z" fill="#BF5523"/>
<path d="M24.5 42.9675L46.4288 30.3492C46.6522 30.221 46.7882 29.9838 46.7882 29.7298V5.73688C46.7882 5.18521 46.1885 4.84163 45.7102 5.11746L24.5 17.322V42.9699V42.9675Z" fill="#D86128"/>
<path d="M42.634 24.3244V0.716176C42.634 0.0749778 41.8547 -0.241992 41.4031 0.212896L24.5 17.3172V42.9651L42.4277 24.8252C42.5612 24.6921 42.634 24.5107 42.634 24.3219V24.3244Z" fill="#FA773A"/>
</g>
<defs>
<clipPath id="clip0_36_604">
<rect width="49" height="45" fill="white"/>
</clipPath>
</defs>
</svg>
