<svg width="180" height="45" viewBox="0 0 180 45" fill="#202020" xmlns="http://www.w3.org/2000/svg">
<path d="M67.082 26.148C67.082 25.248 66.452 24.726 65.426 24.726H63.194V27.516H65.462C66.488 27.516 67.082 27.048 67.082 26.148ZM66.776 21.162C66.776 20.298 66.218 19.83 65.21 19.83H63.194V22.476H65.21C66.218 22.476 66.776 22.026 66.776 21.162ZM70.196 26.562C70.196 28.65 68.666 30 66.002 30H60.116V17.364H65.804C68.378 17.364 69.908 18.642 69.908 20.64C69.908 22.17 68.99 23.16 67.766 23.52C69.242 23.826 70.196 25.122 70.196 26.562ZM84.4192 23.646C84.4192 27.444 81.5392 30.126 77.9572 30.126C74.3752 30.126 71.4592 27.444 71.4592 23.646C71.4592 19.848 74.3752 17.184 77.9572 17.184C81.5572 17.184 84.4192 19.848 84.4192 23.646ZM74.6092 23.646C74.6092 25.86 75.9052 27.318 77.9572 27.318C79.9732 27.318 81.2872 25.86 81.2872 23.646C81.2872 21.396 79.9732 19.974 77.9572 19.974C75.9052 19.974 74.6092 21.396 74.6092 23.646ZM98.5696 23.646C98.5696 27.444 95.6896 30.126 92.1076 30.126C88.5256 30.126 85.6096 27.444 85.6096 23.646C85.6096 19.848 88.5256 17.184 92.1076 17.184C95.7076 17.184 98.5696 19.848 98.5696 23.646ZM88.7596 23.646C88.7596 25.86 90.0556 27.318 92.1076 27.318C94.1236 27.318 95.4376 25.86 95.4376 23.646C95.4376 21.396 94.1236 19.974 92.1076 19.974C90.0556 19.974 88.7596 21.396 88.7596 23.646ZM107.608 30L103.36 24.42V30H100.282V17.364H103.36V22.908L107.572 17.364H111.19L106.294 23.556L111.37 30H107.608ZM120.44 30.018L116.93 17.454H118.676L121.412 28.092L124.436 17.454H126.272L129.152 28.056L131.906 17.454H133.67L130.034 30H128.198L125.282 19.902L122.258 30L120.44 30.018ZM147.45 23.718C147.45 27.48 144.696 30.126 141.15 30.126C137.622 30.126 134.85 27.48 134.85 23.718C134.85 19.956 137.622 17.31 141.15 17.31C144.696 17.31 147.45 19.956 147.45 23.718ZM136.524 23.718C136.524 26.778 138.504 28.704 141.15 28.704C143.796 28.704 145.776 26.778 145.776 23.718C145.776 20.64 143.796 18.732 141.15 18.732C138.504 18.732 136.524 20.64 136.524 23.718ZM156.327 21.144C156.327 19.722 155.535 18.804 153.663 18.804H151.251V23.556H153.663C155.517 23.556 156.327 22.548 156.327 21.144ZM149.613 17.454H153.663C156.615 17.454 158.019 19.092 158.019 21.144C158.019 22.746 157.137 24.276 155.031 24.744L158.181 30H156.219L153.231 24.87H151.251V30H149.613V17.454ZM160.564 17.454H162.202V28.668H166.594V30H160.564V17.454ZM172.239 17.454C176.361 17.454 178.899 19.866 178.899 23.754C178.899 27.642 176.361 30 172.239 30H168.333V17.454H172.239ZM169.971 28.65H172.239C175.515 28.65 177.225 26.814 177.225 23.754C177.225 20.694 175.515 18.786 172.239 18.786H169.971V28.65Z" fill="black"/>
<g clip-path="url(#clip0_36_602)">
<path d="M24.5 42.9675L0.538995 36.841C0.220939 36.7588 0 36.4757 0 36.1466V11.9795C0 11.5125 0.441879 11.1689 0.895897 11.2851L24.5 17.3196V42.9675Z" fill="#FF7532"/>
<path d="M11.4985 17.2204V44.775C11.4985 44.9637 11.7195 45.0702 11.8676 44.9492L13.8827 43.3208C13.9774 43.2434 14.1182 43.2579 14.1984 43.3498L15.405 44.775C15.541 44.9347 15.8032 44.8403 15.8032 44.6298V20.0852C15.8032 19.8965 15.7279 19.715 15.5944 19.5795L12.7295 16.7123C12.2779 16.2598 11.5034 16.5792 11.5034 17.218L11.4985 17.2204Z" fill="#484848"/>
<path d="M2.21191 29.7298V5.73688C2.21191 5.18521 2.81161 4.84163 3.2899 5.11746L24.5001 17.322V42.9699L2.57124 30.3516C2.34788 30.2234 2.21191 29.9863 2.21191 29.7322V29.7298Z" fill="#E9692C"/>
<path d="M6.36621 24.3244V0.716176C6.36621 0.0749778 7.14557 -0.241992 7.59716 0.212896L24.5002 17.3172V42.9651L6.57258 24.8276C6.43905 24.6946 6.36621 24.5131 6.36621 24.3244Z" fill="#D86128"/>
<path d="M24.5 42.9675L48.461 36.841C48.7791 36.7588 49 36.4757 49 36.1466V11.9795C49 11.5125 48.5581 11.1689 48.1041 11.2851L24.5 17.3196V42.9675Z" fill="#BF5523"/>
<path d="M24.5 42.9675L46.4288 30.3492C46.6522 30.221 46.7882 29.9838 46.7882 29.7298V5.73688C46.7882 5.18521 46.1885 4.84163 45.7102 5.11746L24.5 17.322V42.9699V42.9675Z" fill="#D86128"/>
<path d="M42.634 24.3244V0.716176C42.634 0.0749778 41.8547 -0.241992 41.4031 0.212896L24.5 17.3172V42.9651L42.4277 24.8252C42.5612 24.6921 42.634 24.5107 42.634 24.3219V24.3244Z" fill="#FA773A"/>
</g>
<defs>
<clipPath id="clip0_36_602">
<rect width="49" height="45" fill="white"/>
</clipPath>
</defs>
</svg>
